# xmcd
#
# Track frame offsets: 
#        150
#        11387
#        25030
#        35702
#        46430
#        57087
#        68440
#        80085
#        90310
#        106177
#        115365
#        130332
#        143580
#        156277
#        167895
#        179582
#        196117
#        211065
#        226267
#        241162
#
# Disc length: 3460 seconds
#
# Revision: 4
# Processed by: cddbd v1.5.2PL0 Copyright (c) Steve Scherf et al.
# Submitted via: ExactAudioCopy v0.99pb5
#
DISCID=fe0d8214
DTITLE=Jerry Reed - The Essential Jerry Reed
DYEAR=1995
DGENRE=Country
TTITLE0=Guitar Man
TTITLE1=Alabama Jubilee
TTITLE2=Amos Moses
TTITLE3=A Thing Called Love
TTITLE4=When You're Hot, You're Hot
TTITLE5=Smell The Flowers
TTITLE6=Ko-Ko Joe
TTITLE7=You Took All The Ramblin' Out Of Me
TTITLE8=The Uptown Poker Club
TTITLE9=The Claw
TTITLE10=Lord, Mr. Ford
TTITLE11=A Good Woman's Love
TTITLE12=East Bound And Down
TTITLE13=Let's Sing Our Song
TTITLE14=The Crude Oil Blues
TTITLE15=I Love You, What Can I Say
TTITLE16=The Bird
TTITLE17=Texas Bound And Flyin'
TTITLE18=She Got The Goldmine (I Got The Shaft)
TTITLE19=Another Puff
EXTD=
EXTT0=
EXTT1=
EXTT2=
EXTT3=
EXTT4=
EXTT5=
EXTT6=
EXTT7=
EXTT8=
EXTT9=
EXTT10=
EXTT11=
EXTT12=
EXTT13=
EXTT14=
EXTT15=
EXTT16=
EXTT17=
EXTT18=
EXTT19=
PLAYORDER=
